<svg width="474" height="224" viewBox="0 0 474 224" fill="none" xmlns="http://www.w3.org/2000/svg">
<g clip-path="url(#clip0_52_190)">
<path d="M99.6973 111.32V149.37C99.6973 149.37 135.794 152.275 144.346 143.474C152.903 134.673 155.649 130.877 156.164 128.062C156.679 125.247 142.763 109.725 127.291 111.32" fill="#E94E1B"/>
<path d="M353.354 115.92L337.436 168.768H369.034L353.429 115.505" fill="#E94E1B"/>
<path d="M52.4194 87.9218L76.045 161.992L79.4922 172.758L86.2166 194.291L89.6637 205.057L95.6976 224.005H86.3865L80.3527 205.057H15.345L9.31109 224.005H0L6.03389 205.057L9.48106 194.291L16.2054 172.758L19.6526 161.992L43.2783 87.9218L47.7612 73.2798L52.4194 87.9218ZM18.7975 194.286H76.9108L70.1864 172.753H25.5218L18.7975 194.286ZM28.969 161.992H66.7339L47.7665 102.564L28.969 161.992Z" fill="black"/>
<path d="M102.204 103.834H128.677C139.618 103.834 148.972 107.489 156.738 114.8C164.503 122.111 168.21 130.918 168.21 141.219C168.21 147.2 166.798 153.016 163.797 158.336C160.971 163.652 156.913 167.973 151.792 171.628L178.265 220.15H168.38L144.022 175.619C139.082 177.614 133.962 178.609 128.666 178.609H102.194V220.15H93.3711V103.834H102.194H102.204ZM102.204 145.375H126.563C133.096 145.375 138.917 143.549 144.213 140.224C149.509 136.733 153.216 132.248 155.33 126.767C152.685 122.281 148.977 118.791 144.032 116.131C139.268 113.47 134.323 112.14 128.677 112.14H102.204V145.375ZM145.089 149.36C139.443 152.185 133.266 153.681 126.557 153.681H102.199V170.298H128.671C137.143 170.298 144.378 167.307 150.38 161.657C156.382 155.841 159.383 149.195 159.383 141.219C159.383 139.889 159.383 138.729 159.207 137.564C155.675 142.549 150.911 146.37 145.089 149.36Z" fill="black"/>
<path d="M216.599 108.695L236.028 170.123L238.865 179.049L244.394 196.906L247.23 205.833L252.197 221.545H244.537L239.571 205.833H186.1L181.134 221.545H173.475L178.441 205.833L181.277 196.906L186.807 179.049L189.643 170.123L209.072 108.695L212.759 96.553L216.588 108.695H216.599ZM188.942 196.906H236.74L231.211 179.049H194.476L188.947 196.906H188.942ZM197.307 170.123H228.369L212.769 120.841L197.307 170.123Z" fill="black"/>
<path d="M255.022 98.6183L282.27 131.283L309.518 98.6183H320.083L297.583 125.807V195.021L320.237 222.21H309.523L282.275 189.545L255.181 222.21H244.468L266.967 195.371V125.627L244.468 98.6133H255.032L255.022 98.6183ZM274.616 186.195L277.065 183.195L282.27 176.839L287.629 183.195L289.924 185.845V134.993L287.629 137.644L282.27 143.999L276.911 137.644L274.616 134.818V186.2V186.195Z" fill="black"/>
<path d="M357.263 104.934L376.692 168.773L379.529 178.054L385.058 196.611L387.894 205.888L392.861 222.22H385.201L380.235 205.888H326.764L321.798 222.22H314.139L319.105 205.888L321.941 196.611L327.471 178.054L330.307 168.773L349.736 104.934L353.423 92.3174L357.252 104.934H357.263ZM329.606 196.606H377.404L371.875 178.049H335.14L329.611 196.606H329.606ZM337.971 168.768H369.033L353.433 117.551L337.971 168.768Z" fill="black"/>
<path d="M194.471 179.049L188.941 196.906H236.74L231.205 179.049" fill="#BE1622"/>
<path d="M47.7662 102.564L28.9688 161.992H66.7337" fill="#BE1622"/>
<path d="M379.949 35.2947C379.949 35.2947 380.092 35.2947 380.188 35.2397C401.285 22.323 424.47 26.1135 434.525 38.2151L442.742 32.5944L441.238 30.6491L452.547 27.4337L446.146 37.01L444.585 34.9897L436.368 40.6104C443.103 50.3317 443.172 64.8437 433.94 78.3105C431.205 82.301 427.062 86.8116 422.86 89.9871L418.351 93.0725L375.901 38.0601C377.261 37.195 378.589 36.1348 379.949 35.2897V35.2947ZM430.822 40.7505C426.472 35.8598 420.231 32.3743 412.487 31.1392C404.074 29.799 393.961 31.2542 384.549 36.2099C383.502 36.7599 382.498 37.39 381.452 37.9301L399.936 61.8783L430.828 40.7505H430.822ZM432.671 43.1458L401.779 64.2736L420.205 88.1468C435.364 76.6053 439.751 60.3031 435.475 48.6765C434.753 46.7113 433.77 44.891 432.671 43.1408V43.1458Z" fill="black"/>
<path d="M432.161 41.7957L365.607 84.8914" stroke="#1D1D1B" stroke-width="1.81" stroke-miterlimit="10"/>
</g>
<defs>
<clipPath id="clip0_52_190">
<rect width="474" height="224" fill="white"/>
</clipPath>
</defs>
</svg>
